<svg xmlns="http://www.w3.org/2000/svg" xmlns:xlink="http://www.w3.org/1999/xlink" width="150.057" height="49.085" viewBox="0 0 150.057 49.085">
  <defs>
    <clipPath id="clip-path">
      <path id="Path_3269" data-name="Path 3269" d="M156.27,341.687,149.5,337.78l-13.051-7.536c-.725-.418-1.446-.165-1.446.709v30.7c0,.655.516.938,1.146.575l13.352-7.71,6.766-3.906,6.5-3.754c.763-.441.69-1.046.046-1.392S156.27,341.687,156.27,341.687Z" transform="translate(-135.006 -330.047)" fill="none"/>
    </clipPath>
    <linearGradient id="linear-gradient" x1="0.5" x2="0.5" y2="1" gradientUnits="objectBoundingBox">
      <stop offset="0" stop-color="#006aa2"/>
      <stop offset="0.345" stop-color="#2f8da6"/>
      <stop offset="0.786" stop-color="#66b6ac"/>
      <stop offset="1" stop-color="#7cc6af"/>
    </linearGradient>
    <linearGradient id="linear-gradient-2" y1="0.5" x2="1" y2="0.5" gradientUnits="objectBoundingBox">
      <stop offset="0" stop-color="#4ab59d"/>
      <stop offset="1" stop-color="#dfe385"/>
    </linearGradient>
    <linearGradient id="linear-gradient-3" x1="0.5" x2="0.5" y2="1" gradientUnits="objectBoundingBox">
      <stop offset="0" stop-color="#e4282d"/>
      <stop offset="0.316" stop-color="#ba2d4e"/>
      <stop offset="0.777" stop-color="#83357b"/>
      <stop offset="1" stop-color="#6e388d"/>
    </linearGradient>
    <linearGradient id="linear-gradient-4" x1="0.5" x2="0.5" y2="1" gradientUnits="objectBoundingBox">
      <stop offset="0" stop-color="#f07165"/>
      <stop offset="0.659" stop-color="#faa460"/>
      <stop offset="1" stop-color="#ffba5e"/>
    </linearGradient>
  </defs>
  <g id="Group_6613" data-name="Group 6613" transform="translate(0 0)">
    <path id="Path_3264" data-name="Path 3264" d="M246.7,338.525a6.633,6.633,0,0,1-6.632,6.634H103.275a6.635,6.635,0,0,1-6.634-6.634V302.708a6.634,6.634,0,0,1,6.634-6.634H240.067a6.633,6.633,0,0,1,6.632,6.634Z" transform="translate(-96.641 -296.074)" fill="#1a1818"/>
    <g id="PLAY" transform="translate(11.255 9.967)">
      <g id="Group_6453" data-name="Group 6453" clip-path="url(#clip-path)">
        <path id="Path_3265" data-name="Path 3265" d="M135.006,328.285v33.24l16.762-16.62Z" transform="translate(-135.006 -328.802)" fill="url(#linear-gradient)"/>
        <path id="Path_3266" data-name="Path 3266" d="M156.27,340.15l-6.766-3.906-14.5-8.371v.121l16.762,16.621Z" transform="translate(-135.006 -328.511)" fill="url(#linear-gradient-2)"/>
        <path id="Path_3267" data-name="Path 3267" d="M135.006,401.557v.121l14.5-8.371,6.766-3.906-4.5-4.464Z" transform="translate(-135.006 -368.834)" fill="url(#linear-gradient-3)"/>
        <path id="Path_3268" data-name="Path 3268" d="M196.642,369.721l-4.5,4.464,4.5,4.464,7.733-4.464Z" transform="translate(-175.378 -358.081)" fill="url(#linear-gradient-4)"/>
      </g>
    </g>
    <g id="Group_6454" data-name="Group 6454" transform="translate(112.284 18.667)">
      <path id="Path_3270" data-name="Path 3270" d="M483.866,382.952a4.18,4.18,0,0,1-1.724-.348,3.25,3.25,0,0,1-1.31-1.071h-.106a12.994,12.994,0,0,1,.106,1.605v3.978h-1.463V373.108h1.191l.2,1.323h.07a3.4,3.4,0,0,1,1.315-1.147,3.993,3.993,0,0,1,1.719-.353,3.573,3.573,0,0,1,2.968,1.314,7,7,0,0,1-.017,7.388A3.582,3.582,0,0,1,483.866,382.952Zm-.212-8.776a2.594,2.594,0,0,0-2.143.82,4.224,4.224,0,0,0-.68,2.611v.326a4.837,4.837,0,0,0,.68,2.915,2.583,2.583,0,0,0,2.178.877,2.266,2.266,0,0,0,1.963-1.014,4.813,4.813,0,0,0,.71-2.8,4.632,4.632,0,0,0-.71-2.774A2.337,2.337,0,0,0,483.654,374.176Z" transform="translate(-479.368 -369.051)" fill="#f9f9f9"/>
      <path id="Path_3271" data-name="Path 3271" d="M516.408,373.427h-1.464V359.7h1.464Z" transform="translate(-504.507 -359.703)" fill="#f9f9f9"/>
      <path id="Path_3272" data-name="Path 3272" d="M532.565,382.817l-.291-1.376h-.07a4.056,4.056,0,0,1-1.443,1.23,4.381,4.381,0,0,1-1.795.322,3.23,3.23,0,0,1-2.253-.741,2.7,2.7,0,0,1-.816-2.108q0-2.928,4.683-3.07l1.641-.053v-.6a2.449,2.449,0,0,0-.49-1.68,2.012,2.012,0,0,0-1.565-.543,6.376,6.376,0,0,0-2.734.741l-.45-1.12a6.881,6.881,0,0,1,1.566-.608,6.778,6.778,0,0,1,1.707-.221,3.683,3.683,0,0,1,2.562.767,3.205,3.205,0,0,1,.833,2.461v6.6Zm-3.307-1.031a2.974,2.974,0,0,0,2.148-.75,2.776,2.776,0,0,0,.781-2.1v-.873l-1.465.061a5.327,5.327,0,0,0-2.518.543,1.636,1.636,0,0,0-.772,1.495,1.507,1.507,0,0,0,.481,1.208A1.993,1.993,0,0,0,529.258,381.786Z" transform="translate(-512.246 -369.093)" fill="#f9f9f9"/>
      <path id="Path_3273" data-name="Path 3273" d="M555.222,373.533h1.569l2.117,5.513a21.062,21.062,0,0,1,.865,2.726h.071q.114-.451.48-1.54t2.395-6.7h1.571l-4.155,11.008a5.491,5.491,0,0,1-1.443,2.316,3.067,3.067,0,0,1-2.024.683,5.922,5.922,0,0,1-1.323-.149v-1.173a5.111,5.111,0,0,0,1.085.106,2.236,2.236,0,0,0,2.152-1.694l.538-1.376Z" transform="translate(-532.968 -369.476)" fill="#f9f9f9"/>
    </g>
    <g id="Group_6456" data-name="Group 6456" transform="translate(45.537 17.586)">
      <path id="Path_3274" data-name="Path 3274" d="M384.085,374.841a3.293,3.293,0,0,1-.263,5.6,1.423,1.423,0,0,0-.566.992,1.109,1.109,0,0,0,.526.869l.728.565a3.52,3.52,0,0,1,1.7,2.832c0,1.9-1.84,3.821-5.317,3.821-2.932,0-4.347-1.395-4.347-2.892a2.909,2.909,0,0,1,1.557-2.467,8.715,8.715,0,0,1,3.862-.931,2.116,2.116,0,0,1-.607-1.373,1.825,1.825,0,0,1,.2-.79c-.223.021-.445.041-.648.041a3.2,3.2,0,0,1-3.356-3.174,3.638,3.638,0,0,1,1.293-2.71,5.515,5.515,0,0,1,3.621-1.112h4.164l-1.294.728Zm-1.436,8.978a3.137,3.137,0,0,0-.464-.021,8.089,8.089,0,0,0-2.123.325,2.271,2.271,0,0,0-1.739,2.082c0,1.435,1.4,2.468,3.56,2.468,1.94,0,2.972-.932,2.972-2.185C384.854,385.455,384.186,384.911,382.649,383.819Zm.587-3.842a2.045,2.045,0,0,0,.5-1.477c0-1.455-.869-3.72-2.547-3.72a1.889,1.889,0,0,0-1.416.667,2.336,2.336,0,0,0-.445,1.5c0,1.355.789,3.6,2.528,3.6A2.07,2.07,0,0,0,383.236,379.977Z" transform="translate(-339.962 -368.805)" fill="#f9f9f9"/>
      <path id="Path_3275" data-name="Path 3275" d="M347,382.8a4.764,4.764,0,0,1-4.925-4.765,5,5,0,0,1,5.229-4.9,4.719,4.719,0,0,1,4.824,4.764A4.933,4.933,0,0,1,347,382.8Zm2.523-1.635a3.652,3.652,0,0,0,.606-2.241c0-1.777-.848-5.168-3.351-5.168a2.812,2.812,0,0,0-1.816.687,3.055,3.055,0,0,0-.929,2.464c0,2,.989,5.286,3.433,5.286A2.578,2.578,0,0,0,349.521,381.169Z" transform="translate(-315.605 -368.114)" fill="#f9f9f9"/>
      <path id="Path_3276" data-name="Path 3276" d="M309.7,382.8a4.764,4.764,0,0,1-4.926-4.765,5,5,0,0,1,5.229-4.9,4.719,4.719,0,0,1,4.824,4.764A4.933,4.933,0,0,1,309.7,382.8Zm2.524-1.635a3.657,3.657,0,0,0,.606-2.241c0-1.777-.848-5.168-3.352-5.168a2.813,2.813,0,0,0-1.817.687,3.054,3.054,0,0,0-.929,2.464c0,2,.989,5.286,3.432,5.286A2.58,2.58,0,0,0,312.225,381.169Z" transform="translate(-289.25 -368.114)" fill="#f9f9f9"/>
      <path id="Path_3277" data-name="Path 3277" d="M265.839,371.483l-2.9.67a21.514,21.514,0,0,1-3.348.344c-5.6,0-7.733-4.12-7.733-7.347,0-3.937,3.024-7.589,8.2-7.589a11.685,11.685,0,0,1,3.1.426,7.913,7.913,0,0,1,2.679,1.258l-1.685,1.6-.71.161.507-.812a5.8,5.8,0,0,0-4.343-1.907c-3.207,0-5.623,2.436-5.623,5.988a7.177,7.177,0,0,0,7.184,7.407,6.044,6.044,0,0,0,2.578-.508V367.91l-3.064.162,1.623-.874h4.3l-.527.507a.474.474,0,0,0-.2.324c-.021.183-.04.772-.04.975Z" transform="translate(-251.856 -357.108)" fill="#f9f9f9"/>
      <path id="Path_3278" data-name="Path 3278" d="M413.732,369.809c-.67-.061-.81-.182-.81-.975V357.347c0-.044.007-.089.011-.131.082-.71.284-.832.914-1.2h-2.9l-1.523.731h1.552v12.532c0,.4-.08.466-.547,1.075h3.593l.751-.445C414.423,369.869,414.078,369.849,413.732,369.809Z" transform="translate(-363.195 -356.019)" fill="#f9f9f9"/>
      <path id="Path_3279" data-name="Path 3279" d="M434.546,382.1c-.221.121-.443.263-.664.363a4.694,4.694,0,0,1-1.957.383,4.307,4.307,0,0,1-2.681-.787,5.216,5.216,0,0,1-2.055-4.253,4.568,4.568,0,0,1,4.616-4.655,3.918,3.918,0,0,1,2.077.565,3.337,3.337,0,0,1,1.409,1.994l-4.735,1.915-1.552.121c.5,2.56,2.236,4.05,4.152,4.05a5.209,5.209,0,0,0,2.459-.7Zm-1.894-6.007c.382-.141.584-.262.584-.544a2,2,0,0,0-2-1.733,2.483,2.483,0,0,0-2.318,2.8c0,.343.04.705.061,1.069Z" transform="translate(-375.751 -368.128)" fill="#f9f9f9"/>
      <g id="Group_6455" data-name="Group 6455" transform="translate(60.14 5.028)">
        <path id="Path_3280" data-name="Path 3280" d="M457.447,373.294v1.33h-.161v-1.33h-.44v-.138h1.041v.138Z" transform="translate(-456.846 -373.156)" fill="#f9f9f9"/>
        <path id="Path_3281" data-name="Path 3281" d="M462.406,374.624v-1.342H462.4l-.41,1.342h-.126l-.413-1.342h0v1.342H461.3v-1.468h.251l.374,1.186h0l.368-1.186h.255v1.468Z" transform="translate(-459.992 -373.156)" fill="#f9f9f9"/>
      </g>
    </g>
    <g id="Group_6457" data-name="Group 6457" transform="translate(45.571 9.888)">
      <path id="Path_3282" data-name="Path 3282" d="M255.97,334.206h-1.008a6.694,6.694,0,0,0-.287-1.179h-1.456a6.092,6.092,0,0,0-.3,1.179h-.948q0-.123.736-2.017a15.862,15.862,0,0,0,.736-2.086h1.191a17.418,17.418,0,0,0,.667,2.056A18,18,0,0,1,255.97,334.206Zm-1.456-1.781a17.833,17.833,0,0,1-.539-1.759h-.05q0,.123-.558,1.759Z" transform="translate(-251.974 -330.008)" fill="#f7f8f8"/>
      <path id="Path_3283" data-name="Path 3283" d="M271.3,334.206h-.779a7.67,7.67,0,0,0-.867-1.364,7.517,7.517,0,0,1-1.034-1.781h-.05a11.11,11.11,0,0,1,.079,1.248q0,.778.044,1.9h-.775q.048-.977.047-2.146,0-1.15-.047-1.957h.936a5.928,5.928,0,0,0,.778,1.333,7.847,7.847,0,0,1,.952,1.68h.047a11.963,11.963,0,0,1-.075-1.261q0-.854-.044-1.752h.788q-.044.782-.044,1.957T271.3,334.206Z" transform="translate(-263.242 -330.008)" fill="#f7f8f8"/>
      <path id="Path_3284" data-name="Path 3284" d="M286.667,331.967a2.324,2.324,0,0,1-.574,1.563,2,2,0,0,1-1.607.668q-.466,0-1.286-.038.041-.952.041-2.146,0-1.147-.041-1.957h.552q.135,0,.4-.01c.178-.006.3-.009.35-.009a2.125,2.125,0,0,1,1.65.567A1.961,1.961,0,0,1,286.667,331.967Zm-.86.136a1.519,1.519,0,0,0-.353-1.02,1.338,1.338,0,0,0-1.078-.414,3.344,3.344,0,0,0-.372.028q.032.631.032,1.317,0,.753.031,1.494a2.087,2.087,0,0,0,.41.041,1.191,1.191,0,0,0,1-.421A1.623,1.623,0,0,0,285.806,332.1Z" transform="translate(-274.039 -329.962)" fill="#f7f8f8"/>
      <path id="Path_3285" data-name="Path 3285" d="M301.373,334.16h-.933a6.189,6.189,0,0,0-.561-1.377.735.735,0,0,0-.63-.262c-.122,0-.238,0-.35,0q0,.81.028,1.636h-.876q.041-.952.041-2.146,0-1.147-.041-1.957h.545q.095,0,.4-.01t.556-.009q1.447,0,1.447.99a1.11,1.11,0,0,1-.826,1.094v.047a.984.984,0,0,1,.558.5A10.97,10.97,0,0,1,301.373,334.16Zm-1.182-2.9q0-.627-.807-.627a2.746,2.746,0,0,0-.523.044q.035.488.035,1.273.173.006.293.006Q300.191,331.957,300.191,331.261Z" transform="translate(-284.533 -329.962)" fill="#f7f8f8"/>
      <path id="Path_3286" data-name="Path 3286" d="M315.109,331.851a2.264,2.264,0,0,1-.592,1.6,1.923,1.923,0,0,1-1.465.637,1.851,1.851,0,0,1-1.393-.585,2.058,2.058,0,0,1-.561-1.486,2.262,2.262,0,0,1,.592-1.6,1.922,1.922,0,0,1,1.465-.637,1.854,1.854,0,0,1,1.393.583A2.057,2.057,0,0,1,315.109,331.851Zm-.87.091a1.627,1.627,0,0,0-.337-1.068,1.038,1.038,0,0,0-.832-.41.961.961,0,0,0-.782.413,1.647,1.647,0,0,0-.322,1.043,1.623,1.623,0,0,0,.339,1.067,1.038,1.038,0,0,0,.831.411.96.96,0,0,0,.782-.414A1.649,1.649,0,0,0,314.239,331.942Z" transform="translate(-293.752 -329.78)" fill="#f7f8f8"/>
      <path id="Path_3287" data-name="Path 3287" d="M328.7,334.206H327.8q.041-.977.041-2.146,0-1.15-.041-1.957h.892q-.041.794-.041,1.957Q328.656,333.248,328.7,334.206Z" transform="translate(-305.558 -330.008)" fill="#f7f8f8"/>
      <path id="Path_3288" data-name="Path 3288" d="M338.066,331.967a2.324,2.324,0,0,1-.574,1.563,2,2,0,0,1-1.607.668q-.466,0-1.286-.038.041-.952.041-2.146,0-1.147-.041-1.957h.552q.136,0,.4-.01c.178-.006.3-.009.35-.009a2.125,2.125,0,0,1,1.65.567A1.962,1.962,0,0,1,338.066,331.967Zm-.86.136a1.52,1.52,0,0,0-.353-1.02,1.338,1.338,0,0,0-1.078-.414,3.339,3.339,0,0,0-.372.028q.032.631.032,1.317,0,.753.031,1.494a2.086,2.086,0,0,0,.41.041,1.191,1.191,0,0,0,1-.421A1.624,1.624,0,0,0,337.205,332.1Z" transform="translate(-310.359 -329.962)" fill="#f7f8f8"/>
      <path id="Path_3289" data-name="Path 3289" d="M357.446,334.206h-1.008a6.645,6.645,0,0,0-.287-1.179h-1.456a6.083,6.083,0,0,0-.3,1.179h-.948q0-.123.736-2.017a15.832,15.832,0,0,0,.736-2.086h1.191a17.4,17.4,0,0,0,.667,2.056A18.085,18.085,0,0,1,357.446,334.206Zm-1.456-1.781a17.893,17.893,0,0,1-.539-1.759h-.05a18.444,18.444,0,0,1-.558,1.759Z" transform="translate(-323.679 -330.008)" fill="#f7f8f8"/>
      <path id="Path_3290" data-name="Path 3290" d="M372.39,331.132a1.229,1.229,0,0,1-.56,1.112,2.488,2.488,0,0,1-1.372.359q-.148,0-.211-.006,0,.592.035,1.563H369.4q.041-.91.041-2.146,0-1.134-.041-1.957h.549q.116,0,.447-.01t.574-.009a1.8,1.8,0,0,1,1.012.271A.917.917,0,0,1,372.39,331.132Zm-.813.173q0-.674-.9-.674a2.517,2.517,0,0,0-.473.047q.035.6.035,1.349c.053,0,.114.006.183.006Q371.577,332.033,371.577,331.3Z" transform="translate(-334.947 -329.962)" fill="#f7f8f8"/>
      <path id="Path_3291" data-name="Path 3291" d="M385.274,331.132a1.229,1.229,0,0,1-.559,1.112,2.49,2.49,0,0,1-1.373.359c-.1,0-.169,0-.211-.006q0,.592.035,1.563h-.886q.041-.91.041-2.146,0-1.134-.041-1.957h.548q.117,0,.448-.01t.574-.009a1.8,1.8,0,0,1,1.012.271A.917.917,0,0,1,385.274,331.132Zm-.813.173q0-.674-.9-.674a2.517,2.517,0,0,0-.473.047q.035.6.035,1.349c.052,0,.114.006.183.006Q384.461,332.033,384.461,331.3Z" transform="translate(-344.051 -329.962)" fill="#f7f8f8"/>
      <path id="Path_3292" data-name="Path 3292" d="M403.887,331.851a2.263,2.263,0,0,1-.593,1.6,1.922,1.922,0,0,1-1.465.637,1.852,1.852,0,0,1-1.393-.585,2.059,2.059,0,0,1-.561-1.486,2.263,2.263,0,0,1,.592-1.6,1.923,1.923,0,0,1,1.466-.637,1.854,1.854,0,0,1,1.393.583A2.058,2.058,0,0,1,403.887,331.851Zm-.87.091a1.625,1.625,0,0,0-.337-1.068,1.037,1.037,0,0,0-.832-.41.961.961,0,0,0-.782.413,1.647,1.647,0,0,0-.321,1.043,1.623,1.623,0,0,0,.339,1.067,1.037,1.037,0,0,0,.83.411.959.959,0,0,0,.782-.414A1.647,1.647,0,0,0,403.017,331.942Z" transform="translate(-356.484 -329.78)" fill="#f7f8f8"/>
      <path id="Path_3293" data-name="Path 3293" d="M419.965,334.206h-.778a7.67,7.67,0,0,0-.867-1.364,7.524,7.524,0,0,1-1.034-1.781h-.05a11.17,11.17,0,0,1,.079,1.248q0,.778.044,1.9h-.775q.047-.977.047-2.146,0-1.15-.047-1.957h.936a5.938,5.938,0,0,0,.779,1.333,7.848,7.848,0,0,1,.952,1.68h.047a11.888,11.888,0,0,1-.076-1.261q0-.854-.044-1.752h.788q-.044.782-.044,1.957T419.965,334.206Z" transform="translate(-368.291 -330.008)" fill="#f7f8f8"/>
    </g>
  </g>
</svg>
