<?xml version="1.0" encoding="UTF-8" standalone="no"?>
<!DOCTYPE svg PUBLIC "-//W3C//DTD SVG 1.1//EN" "http://www.w3.org/Graphics/SVG/1.1/DTD/svg11.dtd">
<!-- Created with Vectornator (http://vectornator.io/) -->
<svg height="100%" stroke-miterlimit="10" style="fill-rule:nonzero;clip-rule:evenodd;stroke-linecap:round;stroke-linejoin:round;" version="1.1" viewBox="0 0 30 30" width="100%" xml:space="preserve" xmlns="http://www.w3.org/2000/svg" xmlns:vectornator="http://vectornator.io" xmlns:xlink="http://www.w3.org/1999/xlink">
<defs/>
<clipPath id="ArtboardFrame">
<rect height="30" width="30" x="0" y="0"/>
</clipPath>
<g clip-path="url(#ArtboardFrame)" id="Untitled" vectornator:layerName="Untitled">
<g opacity="1">
<clipPath id="ClipPath">
<path d="M-0.0529775-0.0982323L29.9921-0.0982323L29.9921 29.9469L-0.0529775 29.9469L-0.0529775-0.0982323Z" fill-rule="evenodd"/>
</clipPath>
<g clip-path="url(#ClipPath)">
<path d="M14.9673-0.0982323C6.6694-0.0982323-0.0529775 6.62877-0.0529775 14.922C-0.0529775 23.2199 6.6694 29.9469 14.9673 29.9469C23.2651 29.9469 29.9921 23.2199 29.9921 14.922C29.9921 6.62877 23.2651-0.0982323 14.9673-0.0982323" fill="#d7b98c" fill-rule="evenodd" opacity="1" stroke="none"/>
</g>
</g>
<g opacity="1">
<clipPath id="ClipPath_2">
<path d="M6.17042 6.12517L23.3391 6.12517L23.3391 23.2938L6.17042 23.2938L6.17042 6.12517Z" fill-rule="evenodd"/>
</clipPath>
<g clip-path="url(#ClipPath_2)">
<path d="M14.7501 7.67293C17.0417 7.67293 17.3143 7.68217 18.2199 7.72375C19.0515 7.76071 19.5089 7.89932 19.8138 8.01945C20.2112 8.17191 20.4976 8.36134 20.7979 8.66165C21.0983 8.96196 21.2831 9.24842 21.4448 9.64575C21.5603 9.95069 21.6989 10.4035 21.7405 11.2443C21.782 12.1499 21.7867 12.4225 21.7867 14.7095C21.7867 17.0011 21.782 17.2737 21.7405 18.1792C21.7035 19.0155 21.5649 19.4683 21.4448 19.7732C21.2877 20.1752 21.0983 20.4616 20.7979 20.7619C20.4976 21.0622 20.2112 21.2471 19.8138 21.4041C19.5135 21.5196 19.0561 21.6583 18.2199 21.6998C17.3143 21.7414 17.0417 21.7507 14.7501 21.7507C12.4585 21.7507 12.1905 21.7414 11.2804 21.6998C10.4487 21.6629 9.99132 21.5243 9.68639 21.4041C9.28905 21.2517 9.0026 21.0622 8.70229 20.7619C8.40197 20.4616 8.21717 20.1752 8.06008 19.7732C7.93995 19.4729 7.80135 19.0201 7.75977 18.1792C7.71818 17.2737 7.71356 17.0011 7.71356 14.7095C7.71356 12.4225 7.71818 12.1499 7.75977 11.2443C7.79673 10.4081 7.93533 9.95069 8.06008 9.64575C8.21255 9.24842 8.40197 8.96196 8.70229 8.66165C9.0026 8.36134 9.28905 8.17653 9.68639 8.01945C9.9867 7.90394 10.4441 7.76071 11.2804 7.72375C12.1905 7.68217 12.4585 7.67293 14.7501 7.67293M14.7501 6.12517C12.4169 6.12517 12.1305 6.13903 11.2111 6.18061C10.2963 6.22219 9.67253 6.36542 9.12734 6.57795C8.56368 6.7951 8.08318 7.09079 7.6073 7.56667C7.13142 8.04717 6.84035 8.52305 6.61858 9.08671C6.41067 9.63189 6.26282 10.2556 6.22124 11.1704C6.17966 12.0852 6.17042 12.3809 6.17042 14.7095C6.17042 17.0381 6.17966 17.3291 6.22124 18.2486C6.26282 19.1633 6.41067 19.7871 6.61858 20.3323C6.84035 20.8959 7.13142 21.3718 7.61192 21.8523C8.0878 22.3282 8.56368 22.6239 9.13196 22.841C9.67715 23.0536 10.3009 23.1968 11.2157 23.2384C12.1305 23.2799 12.4215 23.2938 14.7547 23.2938C17.0879 23.2938 17.3744 23.2799 18.2938 23.2384C19.2086 23.1968 19.8323 23.0536 20.3775 22.841C20.9412 22.6239 21.4217 22.3282 21.8976 21.8523C22.3734 21.3718 22.6691 20.8959 22.8863 20.3323C23.0988 19.7871 23.2467 19.1633 23.2882 18.2486C23.3252 17.3338 23.3391 17.0381 23.3391 14.7095C23.3391 12.3763 23.3252 12.0852 23.2882 11.1658C23.2467 10.2556 23.0988 9.62727 22.8863 9.08209C22.6691 8.51843 22.3734 8.04255 21.8976 7.56205C21.4217 7.08617 20.9412 6.79047 20.3775 6.57333C19.8323 6.36542 19.2086 6.21757 18.2938 6.17599C17.3744 6.13903 17.0833 6.12517 14.7501 6.12517" fill="#ffffff" fill-rule="evenodd" opacity="1" stroke="none"/>
</g>
</g>
<path d="M14.7501 10.3018C12.3153 10.3018 10.3471 12.2746 10.3471 14.7095C10.3471 17.1397 12.3199 19.1171 14.7547 19.1171C17.1896 19.1171 19.1624 17.1443 19.1624 14.7095C19.1578 12.2746 17.185 10.3018 14.7501 10.3018M14.7501 17.5694C13.17 17.5694 11.8902 16.2896 11.8902 14.7095C11.8902 13.1294 13.17 11.8542 14.7501 11.8542C16.3302 11.8542 17.61 13.1294 17.61 14.7095C17.6146 16.2896 16.3302 17.5694 14.7501 17.5694" fill="#ffffff" fill-rule="evenodd" opacity="1" stroke="none"/>
<path d="M20.3637 10.1309C20.3637 10.6992 19.9016 11.1612 19.3333 11.1612C18.7651 11.1612 18.303 10.6992 18.303 10.1309C18.303 9.56259 18.7651 9.10057 19.3333 9.10057C19.9016 9.10057 20.3637 9.55797 20.3637 10.1309" fill="#ffffff" fill-rule="evenodd" opacity="1" stroke="none"/>
</g>
</svg>
