<?xml version="1.0" encoding="UTF-8" standalone="no"?>
<!DOCTYPE svg PUBLIC "-//W3C//DTD SVG 1.1//EN" "http://www.w3.org/Graphics/SVG/1.1/DTD/svg11.dtd">
<!-- Created with Vectornator (http://vectornator.io/) -->
<svg height="100%" stroke-miterlimit="10" style="fill-rule:nonzero;clip-rule:evenodd;stroke-linecap:round;stroke-linejoin:round;" version="1.1" viewBox="0 0 30 30" width="100%" xml:space="preserve" xmlns="http://www.w3.org/2000/svg" xmlns:vectornator="http://vectornator.io" xmlns:xlink="http://www.w3.org/1999/xlink">
<defs/>
<clipPath id="ArtboardFrame">
<rect height="30" width="30" x="0" y="0"/>
</clipPath>
<g clip-path="url(#ArtboardFrame)" id="Untitled" vectornator:layerName="Untitled">
<g opacity="1">
<clipPath id="ClipPath">
<path d="M6.44543 6.51295L23.5803 6.51295L23.5803 23.6478L6.44543 23.6478L6.44543 6.51295Z" fill-rule="evenodd"/>
</clipPath>
<g clip-path="url(#ClipPath)">
<path d="M15.0083 8.05767C17.2954 8.05767 17.5674 8.0669 18.4712 8.1084C19.3012 8.14528 19.7577 8.28362 20.062 8.40351C20.4586 8.55567 20.7445 8.74473 21.0442 9.04445C21.3439 9.34417 21.5284 9.63006 21.6898 10.0266C21.805 10.331 21.9434 10.7828 21.9849 11.6221C22.0264 12.5258 22.031 12.7979 22.031 15.0804C22.031 17.3675 22.0264 17.6396 21.9849 18.5433C21.948 19.378 21.8097 19.8298 21.6898 20.1342C21.533 20.5353 21.3439 20.8212 21.0442 21.121C20.7445 21.4207 20.4586 21.6051 20.062 21.7619C19.7623 21.8772 19.3058 22.0155 18.4712 22.057C17.5674 22.0985 17.2954 22.1077 15.0083 22.1077C12.7211 22.1077 12.4537 22.0985 11.5453 22.057C10.7153 22.0201 10.2588 21.8818 9.95448 21.7619C9.55793 21.6097 9.27204 21.4207 8.97232 21.121C8.67259 20.8212 8.48815 20.5353 8.33137 20.1342C8.21148 19.8345 8.07315 19.3826 8.03165 18.5433C7.99015 17.6396 7.98554 17.3675 7.98554 15.0804C7.98554 12.7979 7.99015 12.5258 8.03165 11.6221C8.06854 10.7875 8.20687 10.331 8.33137 10.0266C8.48354 9.63006 8.67259 9.34417 8.97232 9.04445C9.27204 8.74473 9.55793 8.56028 9.95448 8.40351C10.2542 8.28823 10.7107 8.14528 11.5453 8.1084C12.4537 8.0669 12.7211 8.05767 15.0083 8.05767M15.0083 6.51295C12.6796 6.51295 12.3938 6.52678 11.4761 6.56828C10.5631 6.60978 9.94065 6.75273 9.39654 6.96484C8.83398 7.18156 8.35443 7.47667 7.87948 7.95162C7.40454 8.43117 7.11404 8.90612 6.8927 9.46867C6.6852 10.0128 6.53765 10.6353 6.49615 11.5483C6.45465 12.4613 6.44543 12.7564 6.44543 15.0804C6.44543 17.4044 6.45465 17.6949 6.49615 18.6125C6.53765 19.5255 6.6852 20.148 6.8927 20.6921C7.11404 21.2547 7.40454 21.7296 7.88409 22.2092C8.35904 22.6841 8.83398 22.9792 9.40115 23.196C9.94526 23.4081 10.5678 23.551 11.4808 23.5925C12.3938 23.634 12.6843 23.6478 15.0129 23.6478C17.3415 23.6478 17.6274 23.634 18.545 23.5925C19.458 23.551 20.0805 23.4081 20.6246 23.196C21.1871 22.9792 21.6667 22.6841 22.1417 22.2092C22.6166 21.7296 22.9117 21.2547 23.1284 20.6921C23.3405 20.148 23.4881 19.5255 23.5296 18.6125C23.5665 17.6995 23.5803 17.4044 23.5803 15.0804C23.5803 12.7518 23.5665 12.4613 23.5296 11.5437C23.4881 10.6353 23.3405 10.0082 23.1284 9.46406C22.9117 8.90151 22.6166 8.42656 22.1417 7.94701C21.6667 7.47206 21.1871 7.17695 20.6246 6.96023C20.0805 6.75273 19.458 6.60517 18.545 6.56367C17.6274 6.52678 17.3369 6.51295 15.0083 6.51295" fill="#ffffff" fill-rule="evenodd" opacity="1" stroke="none"/>
</g>
</g>
<path d="M15.0083 10.6814C12.5782 10.6814 10.6139 12.6503 10.6139 15.0804C10.6139 17.5058 12.5828 19.4794 15.0129 19.4794C17.4429 19.4794 19.4119 17.5105 19.4119 15.0804C19.4073 12.6503 17.4383 10.6814 15.0083 10.6814M15.0083 17.9347C13.4313 17.9347 12.154 16.6574 12.154 15.0804C12.154 13.5034 13.4313 12.2307 15.0083 12.2307C16.5853 12.2307 17.8625 13.5034 17.8625 15.0804C17.8671 16.6574 16.5853 17.9347 15.0083 17.9347" fill="#ffffff" fill-rule="evenodd" opacity="1" stroke="none"/>
<path d="M20.6108 10.5108C20.6108 11.078 20.1496 11.5391 19.5825 11.5391C19.0153 11.5391 18.5542 11.078 18.5542 10.5108C18.5542 9.94362 19.0153 9.48251 19.5825 9.48251C20.1496 9.48251 20.6108 9.93901 20.6108 10.5108" fill="#ffffff" fill-rule="evenodd" opacity="1" stroke="none"/>
<g opacity="1">
<clipPath id="ClipPath_2">
<path d="M-0.0147414 0.0527838L29.9713 0.0527838L29.9713 30.0435L-0.0147414 30.0435L-0.0147414 0.0527838Z" fill-rule="evenodd"/>
</clipPath>
<g clip-path="url(#ClipPath_2)">
<path d="M29.9759 15.0481C29.9759 16.0349 29.8791 17.0078 29.6854 17.9716C29.4964 18.9399 29.2105 19.876 28.8324 20.7843C28.4589 21.6973 27.9932 22.5596 27.449 23.3804C26.9003 24.1966 26.2778 24.9528 25.5815 25.6491C24.8853 26.3453 24.129 26.9678 23.3129 27.5166C22.4921 28.0607 21.6298 28.5218 20.7214 28.8999C19.8084 29.278 18.8724 29.5639 17.9086 29.753C16.9403 29.9466 15.9674 30.0435 14.9806 30.0435C13.9984 30.0435 13.0209 29.9466 12.0571 29.753C11.0888 29.5639 10.1528 29.278 9.24437 28.8999C8.33598 28.5218 7.46909 28.0607 6.65293 27.5166C5.83215 26.9678 5.07593 26.3453 4.37965 25.6491C3.68337 24.9528 3.06087 24.1966 2.51676 23.3804C1.96804 22.5596 1.50692 21.6973 1.12881 20.7843C0.750704 19.876 0.469425 18.9399 0.275759 17.9716C0.0820917 17.0078-0.0101305 16.0349-0.0101305 15.0481C-0.0101305 14.066 0.0820917 13.0884 0.275759 12.1247C0.469425 11.1563 0.750704 10.2203 1.12881 9.3119C1.50692 8.3989 1.96804 7.53662 2.51676 6.72045C3.06087 5.89967 3.68337 5.14345 4.37965 4.44717C5.07593 3.7509 5.83215 3.1284 6.65293 2.57967C7.46909 2.03556 8.33598 1.57445 9.24437 1.19634C10.1528 0.818228 11.0888 0.53695 12.0571 0.343284C13.0209 0.149617 13.9984 0.0527838 14.9806 0.0527838C15.9674 0.0527838 16.9403 0.149617 17.9086 0.343284C18.8724 0.53695 19.8084 0.818228 20.7214 1.19634C21.6298 1.57445 22.4921 2.03556 23.3129 2.57967C24.129 3.1284 24.8853 3.7509 25.5815 4.44717C26.2778 5.14345 26.9003 5.89967 27.449 6.72045C27.9932 7.53662 28.4589 8.3989 28.8324 9.3119C29.2105 10.2203 29.4964 11.1563 29.6854 12.1247C29.8791 13.0884 29.9759 14.066 29.9759 15.0481Z" fill="#d7b98c" fill-rule="evenodd" opacity="1" stroke="none"/>
</g>
</g>
<path d="M18.7433 15.8182L19.1675 12.5351L15.912 12.5351L15.912 10.4324C15.912 9.48251 16.1795 8.83234 17.5444 8.83234L19.2828 8.83234L19.2828 5.89506C18.983 5.85356 17.9501 5.76134 16.7466 5.76134C14.2382 5.76134 12.5183 7.29684 12.5183 10.1096L12.5183 12.5351L9.68243 12.5351L9.68243 15.8182L12.5183 15.8182L12.5183 24.2519L15.912 24.2519L15.912 15.8182L18.7433 15.8182Z" fill="#ffffff" fill-rule="evenodd" opacity="1" stroke="none"/>
</g>
</svg>
