<svg xmlns="http://www.w3.org/2000/svg" width="150.124" height="49.107" viewBox="0 0 150.124 49.107">
  <g id="Group_6614" data-name="Group 6614" transform="translate(0)">
    <path id="Path_3294" data-name="Path 3294" d="M246.765,978.3a6.636,6.636,0,0,1-6.635,6.637H103.277a6.637,6.637,0,0,1-6.636-6.637V942.461a6.637,6.637,0,0,1,6.636-6.636H240.13a6.636,6.636,0,0,1,6.635,6.636Z" transform="translate(-96.641 -935.825)"/>
    <g id="Group_6460" data-name="Group 6460" transform="translate(10.071 7.634)">
      <path id="Path_3295" data-name="Path 3295" d="M160.715,1006.789a24.32,24.32,0,0,1-2.2,4.1c-1.428,2.174-3.44,4.88-5.933,4.9-2.216.021-2.785-1.442-5.792-1.426s-3.635,1.451-5.851,1.431c-2.493-.023-4.4-2.467-5.828-4.641-3.993-6.078-4.41-13.21-1.948-17a8.835,8.835,0,0,1,7.106-4.272c2.643,0,4.3,1.449,6.489,1.449,2.119,0,3.411-1.452,6.466-1.452a8.623,8.623,0,0,1,6.5,3.432A7.438,7.438,0,0,0,160.715,1006.789Z" transform="translate(-131.637 -981.963)" fill="#fff"/>
      <g id="Group_6459" data-name="Group 6459" transform="translate(13.976)">
        <path id="Path_3296" data-name="Path 3296" d="M185.5,967.849a7.418,7.418,0,0,0,1.647-5.494,8.014,8.014,0,0,0-5.173,2.783,6.886,6.886,0,0,0-1.691,5.359A6.764,6.764,0,0,0,185.5,967.849Z" transform="translate(-180.207 -962.355)" fill="#fff"/>
      </g>
    </g>
    <g id="Group_6463" data-name="Group 6463" transform="translate(45.593 7.706)">
      <g id="Group_6461" data-name="Group 6461" transform="translate(0 11.764)">
        <path id="Path_3297" data-name="Path 3297" d="M260.8,1004.42l-5.719,16.835H257.7l1.707-5.169h5.538l1.756,5.169h2.691l-5.744-16.835Zm1.357,2.768c.193.751.4,1.532.669,2.375l1.541,4.464h-4.387l1.52-4.493C261.733,1008.805,261.953,1008.019,262.158,1007.188Z" transform="translate(-255.082 -1004.152)" fill="#fff"/>
        <path id="Path_3298" data-name="Path 3298" d="M314.495,1019.586a4.766,4.766,0,0,0-4.049,1.943l-.1-1.674h-2.33l.014.214c.069,1.043.1,2.191.1,3.839v12.976h2.547v-6.056a4.472,4.472,0,0,0,3.482,1.5,5.251,5.251,0,0,0,3.859-1.641,6.959,6.959,0,0,0,1.7-4.9,6.775,6.775,0,0,0-1.48-4.473A4.846,4.846,0,0,0,314.495,1019.586Zm-.634,2.109c2.271,0,3.287,2.1,3.287,4.188,0,2.688-1.3,4.358-3.383,4.358a3.088,3.088,0,0,1-3-2.364,3.252,3.252,0,0,1-.09-.824V1025a3.837,3.837,0,0,1,.081-.629c.013-.07.026-.139.037-.207A3.225,3.225,0,0,1,313.86,1021.695Z" transform="translate(-292.783 -1014.954)" fill="#fff"/>
        <path id="Path_3299" data-name="Path 3299" d="M360.076,1019.586a4.768,4.768,0,0,0-4.05,1.943l-.1-1.674H353.6l.013.214c.069,1.044.1,2.191.1,3.839v12.976h2.547v-6.056a4.47,4.47,0,0,0,3.481,1.5,5.258,5.258,0,0,0,3.861-1.641,6.968,6.968,0,0,0,1.7-4.9,6.776,6.776,0,0,0-1.481-4.473A4.844,4.844,0,0,0,360.076,1019.586Zm-.634,2.109c2.27,0,3.286,2.1,3.286,4.188,0,2.688-1.3,4.358-3.383,4.358a3.088,3.088,0,0,1-3-2.364,3.254,3.254,0,0,1-.09-.824V1025a3.781,3.781,0,0,1,.081-.631c.013-.069.025-.137.037-.2A3.223,3.223,0,0,1,359.442,1021.695Z" transform="translate(-325.248 -1014.954)" fill="#fff"/>
        <path id="Path_3300" data-name="Path 3300" d="M418.209,1010.889c-2.377-.921-3.139-1.645-3.139-2.982,0-1.126.895-2.262,2.9-2.262a5.788,5.788,0,0,1,2.99.751l.216.133.719-2.126-.142-.083a7.382,7.382,0,0,0-3.709-.832c-3.248,0-5.517,1.917-5.517,4.662,0,2.214,1.421,3.761,4.471,4.87,2.162.808,2.966,1.636,2.966,3.055,0,1.606-1.241,2.6-3.238,2.6a6.971,6.971,0,0,1-3.671-1.041l-.221-.142-.684,2.175.126.083a8.724,8.724,0,0,0,4.3,1.106c4.378,0,5.93-2.669,5.93-4.955C422.505,1013.547,421.261,1012.094,418.209,1010.889Z" transform="translate(-366.949 -1003.488)" fill="#fff"/>
        <path id="Path_3301" data-name="Path 3301" d="M453.372,1010.439l-2.5.784v2.116h-1.829v2.036h1.829v6.236a4.767,4.767,0,0,0,.882,3.232,3.266,3.266,0,0,0,2.464.967,6,6,0,0,0,1.969-.3l.143-.051-.122-2.039-.244.075a3.839,3.839,0,0,1-1.185.137c-.987,0-1.409-.624-1.409-2.091v-6.162h3.073v-2.036h-3.073Z" transform="translate(-393.231 -1008.439)" fill="#fff"/>
        <path id="Path_3302" data-name="Path 3302" d="M481.714,1019.586c-3.564,0-6.052,2.66-6.052,6.467,0,3.693,2.408,6.272,5.857,6.272h.024c2.916,0,6.052-2.031,6.052-6.491a6.435,6.435,0,0,0-1.623-4.505A5.668,5.668,0,0,0,481.714,1019.586Zm-.074,2.011c2.291,0,3.335,2.234,3.335,4.31,0,2.553-1.424,4.406-3.383,4.406h-.025c-1.931,0-3.334-1.822-3.334-4.333C478.234,1023.8,479.288,1021.6,481.641,1021.6Z" transform="translate(-412.189 -1014.954)" fill="#fff"/>
        <path id="Path_3303" data-name="Path 3303" d="M528.551,1019.7l-.153-.039a2.455,2.455,0,0,0-.633-.079,3.634,3.634,0,0,0-3.194,2.051l-.075-1.782h-2.286l.015.214c.068,1.008.1,2.14.1,3.668l-.024,8.321h2.547v-6.491a6.562,6.562,0,0,1,.07-.987,2.815,2.815,0,0,1,2.68-2.567,6.535,6.535,0,0,1,.683.042l.273.028Z" transform="translate(-445.343 -1014.954)" fill="#fff"/>
        <path id="Path_3304" data-name="Path 3304" d="M549.89,1019.5c-3.391,0-5.759,2.709-5.759,6.588,0,3.736,2.356,6.15,6,6.15a9.765,9.765,0,0,0,4.033-.774l.153-.069-.489-1.9-.212.086a7.9,7.9,0,0,1-3.191.571,3.541,3.541,0,0,1-3.815-3.693l8.221.025.033-.163a5.657,5.657,0,0,0,.077-1.063C554.943,1022.6,553.619,1019.5,549.89,1019.5Zm-.169,1.938a2.513,2.513,0,0,1,1.87.713,3.624,3.624,0,0,1,.877,2.371h-5.809C546.895,1023.053,547.815,1021.44,549.72,1021.44Z" transform="translate(-460.956 -1014.894)" fill="#fff"/>
      </g>
      <g id="Group_6462" data-name="Group 6462">
        <path id="Path_3305" data-name="Path 3305" d="M255.082,964.046a18.559,18.559,0,0,1,2.443-.165,5.452,5.452,0,0,1,3.586.981,3.487,3.487,0,0,1,1.261,2.872,4.033,4.033,0,0,1-1.274,3.1,5.911,5.911,0,0,1-3.928,1.147,17.647,17.647,0,0,1-2.089-.1Zm1.156,7.057a8.2,8.2,0,0,0,1.156.047c2.443.011,3.77-1.23,3.77-3.381.013-1.9-1.169-3.074-3.586-3.074a7.259,7.259,0,0,0-1.34.106Z" transform="translate(-255.082 -963.514)" fill="#fff"/>
        <path id="Path_3306" data-name="Path 3306" d="M287.111,977.422a2.872,2.872,0,0,1-3.047-2.943,2.951,2.951,0,0,1,3.152-3.038,2.849,2.849,0,0,1,3.06,2.932,2.962,2.962,0,0,1-3.152,3.05Zm.039-.78a2.036,2.036,0,0,0,1.931-2.234,1.944,1.944,0,1,0-1.944,2.234Z" transform="translate(-275.724 -968.898)" fill="#fff"/>
        <path id="Path_3307" data-name="Path 3307" d="M309.083,971.891l.854,2.9c.17.638.342,1.241.46,1.832h.039c.144-.58.355-1.194.565-1.82l1.038-2.908h.972l.985,2.861c.236.674.42,1.289.565,1.868h.039a15.827,15.827,0,0,1,.486-1.856l.906-2.873h1.143l-2.049,5.721h-1.051l-.972-2.73a18.753,18.753,0,0,1-.565-1.891h-.026a15.713,15.713,0,0,1-.578,1.9l-1.024,2.719h-1.051l-1.918-5.721Z" transform="translate(-292.701 -969.22)" fill="#fff"/>
        <path id="Path_3308" data-name="Path 3308" d="M343.881,973.119c0-.6-.013-1.076-.053-1.549h1.025l.065.934h.026a2.408,2.408,0,0,1,2.1-1.064,2.176,2.176,0,0,1,2.246,2.435v3.416h-1.155v-3.3c0-.922-.382-1.7-1.472-1.7a1.649,1.649,0,0,0-1.55,1.064,1.4,1.4,0,0,0-.079.485v3.452h-1.156Z" transform="translate(-318.291 -968.898)" fill="#fff"/>
        <path id="Path_3309" data-name="Path 3309" d="M369.346,962.607H370.5V971h-1.156Z" transform="translate(-336.466 -962.607)" fill="#fff"/>
        <path id="Path_3310" data-name="Path 3310" d="M381.479,977.422a2.872,2.872,0,0,1-3.047-2.943,2.951,2.951,0,0,1,3.152-3.038,2.849,2.849,0,0,1,3.06,2.932,2.962,2.962,0,0,1-3.152,3.05Zm.039-.78a2.036,2.036,0,0,0,1.931-2.234,1.944,1.944,0,1,0-1.944,2.234Z" transform="translate(-342.938 -968.898)" fill="#fff"/>
        <path id="Path_3311" data-name="Path 3311" d="M408.335,975.92a8.624,8.624,0,0,0,.092,1.371h-1.038l-.105-.721h-.039a2.444,2.444,0,0,1-1.944.851,1.733,1.733,0,0,1-1.944-1.643c0-1.383,1.366-2.14,3.822-2.128v-.118c0-.473-.144-1.336-1.445-1.324a3.318,3.318,0,0,0-1.668.425l-.263-.7a4.476,4.476,0,0,1,2.1-.5,2.127,2.127,0,0,1,2.429,2.341Zm-1.129-1.549c-1.261-.024-2.693.177-2.693,1.288a.966.966,0,0,0,1.077.993,1.6,1.6,0,0,0,1.563-.958.955.955,0,0,0,.053-.331Z" transform="translate(-360.69 -968.898)" fill="#fff"/>
        <path id="Path_3312" data-name="Path 3312" d="M431.446,962.607v6.915c0,.508.014,1.088.053,1.478h-1.037l-.052-.993h-.026a2.379,2.379,0,0,1-2.154,1.123,2.728,2.728,0,0,1-2.732-2.908,2.852,2.852,0,0,1,2.85-3.073,2.186,2.186,0,0,1,1.918.863h.026v-3.4Zm-1.156,5a1.732,1.732,0,0,0-.053-.449,1.671,1.671,0,0,0-1.668-1.194,1.958,1.958,0,0,0-1.9,2.2,1.9,1.9,0,0,0,1.878,2.127,1.72,1.72,0,0,0,1.694-1.241,1.62,1.62,0,0,0,.053-.449Z" transform="translate(-376.458 -962.607)" fill="#fff"/>
        <path id="Path_3313" data-name="Path 3313" d="M463.967,977.422a2.872,2.872,0,0,1-3.047-2.943,2.952,2.952,0,0,1,3.152-3.038,2.849,2.849,0,0,1,3.061,2.932,2.962,2.962,0,0,1-3.152,3.05Zm.04-.78a2.035,2.035,0,0,0,1.931-2.234,1.943,1.943,0,1,0-1.944,2.234Z" transform="translate(-401.689 -968.898)" fill="#fff"/>
        <path id="Path_3314" data-name="Path 3314" d="M487.451,973.119c0-.6-.014-1.076-.053-1.549h1.025l.066.934h.026a2.408,2.408,0,0,1,2.1-1.064,2.176,2.176,0,0,1,2.247,2.435v3.416h-1.156v-3.3c0-.922-.38-1.7-1.471-1.7a1.651,1.651,0,0,0-1.55,1.064,1.409,1.409,0,0,0-.079.485v3.452h-1.156Z" transform="translate(-420.548 -968.898)" fill="#fff"/>
        <path id="Path_3315" data-name="Path 3315" d="M522.2,967.127V968.5h1.655v.792H522.2v3.086c0,.709.224,1.111.867,1.111a2.375,2.375,0,0,0,.67-.071l.052.792a3.475,3.475,0,0,1-1.025.142,1.75,1.75,0,0,1-1.248-.437,2.077,2.077,0,0,1-.446-1.5V969.29h-.985V968.5h.985v-1.052Z" transform="translate(-443.828 -965.826)" fill="#fff"/>
        <path id="Path_3316" data-name="Path 3316" d="M537.7,962.607h1.156v3.57h.027a1.961,1.961,0,0,1,.828-.733,2.438,2.438,0,0,1,1.182-.3,2.175,2.175,0,0,1,2.219,2.447V971h-1.156v-3.286c0-.934-.381-1.7-1.471-1.7a1.661,1.661,0,0,0-1.55,1.04,1.146,1.146,0,0,0-.079.5V971H537.7Z" transform="translate(-456.379 -962.607)" fill="#fff"/>
        <path id="Path_3317" data-name="Path 3317" d="M562.559,974.578a1.938,1.938,0,0,0,2.168,1.986,4.821,4.821,0,0,0,1.761-.284l.21.733a5.685,5.685,0,0,1-2.128.367,2.82,2.82,0,0,1-3.127-2.884,2.913,2.913,0,0,1,2.995-3.1,2.5,2.5,0,0,1,2.614,2.7,2.4,2.4,0,0,1-.039.5Zm3.377-.745a1.535,1.535,0,0,0-1.59-1.691,1.8,1.8,0,0,0-1.773,1.691Z" transform="translate(-473.286 -968.868)" fill="#fff"/>
      </g>
    </g>
  </g>
</svg>
