<svg id="Layer_1" data-name="Layer 1" xmlns="http://www.w3.org/2000/svg" xmlns:xlink="http://www.w3.org/1999/xlink" viewBox="0 0 1024 1024"><defs><style>.cls-1{fill:#d1d1d1;}.cls-2{fill:#c4c4c4;}.cls-3{fill:url(#radial-gradient);}.cls-4{fill:#da2128;}.cls-5{fill:#939598;}.cls-6{fill:#fff;}</style><radialGradient id="radial-gradient" cx="512" cy="512" r="550.6" gradientUnits="userSpaceOnUse"><stop offset="0.14" stop-color="#fff"/><stop offset="0.16" stop-color="#fff" stop-opacity="0.96"/><stop offset="0.33" stop-color="#fff" stop-opacity="0.62"/><stop offset="0.48" stop-color="#fff" stop-opacity="0.36"/><stop offset="0.61" stop-color="#fff" stop-opacity="0.16"/><stop offset="0.7" stop-color="#fff" stop-opacity="0.04"/><stop offset="0.76" stop-color="#fff" stop-opacity="0"/></radialGradient></defs><polygon class="cls-1" points="0 0 0 1024 1024 0 0 0"/><polygon class="cls-2" points="0 1024 1024 1024 1024 0 0 1024"/><circle class="cls-3" cx="512" cy="512" r="512"/><path class="cls-4" d="M531.45,554.29v-73H591v17h-35.6v10.45H585.5v17H555.38v11.46h37v17Z"/><path class="cls-4" d="M600.2,554.29v-73h21.09v73Z"/><path class="cls-4" d="M648.88,532.48a10.24,10.24,0,0,0,10.44,10.45,8.4,8.4,0,0,0,7.91-4.67h20.19c-3.65,13.19-17,17.55-29.41,17.55-17,0-30.23-9.74-30.23-27.59,0-17.44,13.09-28.6,30.12-28.6,19.68,0,31.55,13.59,31.24,32.86Zm19.17-10.75a9.56,9.56,0,0,0-9.33-9.23c-6.29,0-9.84,3.55-9.84,9.23Z"/><path class="cls-4" d="M730.51,521.43a8,8,0,0,0-2.23-5.48,7.1,7.1,0,0,0-5.47-2.13c-7.91,0-9.23,8.22-9.23,14.5,0,8,3,13.29,9.23,13.29,5.47,0,7.6-3.75,8.21-7.91h21.3c-1.83,16.13-14.81,22.11-29.51,22.11-17.14,0-30.33-9.64-30.33-27.59,0-18.15,12.78-28.6,30.33-28.6,14.19,0,27.58,6.09,29.1,21.81Z"/><path class="cls-4" d="M793.79,554.29c-27.68,1.52-31-.41-31-18.76V513.31h-7.51V501.15h7.81V484.61h20.79v16.54H794v12.16H783.85v19.27c0,4.87.71,6.6,6.6,6.6h3.34Z"/><path class="cls-4" d="M801.09,501.15h19.17v10.74h.2c2.94-8.31,8.11-12.27,16.33-12.27a25.82,25.82,0,0,1,2.74.31V521a32.65,32.65,0,0,0-4.36-.61c-8.62,0-13,4.06-13,15.52v18.36H801.09Z"/><path class="cls-4" d="M844.09,479.34h21.09v15H844.09Zm0,74.95V501.15h21.09v53.14Z"/><path class="cls-4" d="M909.8,521.43a8,8,0,0,0-2.23-5.48,7.1,7.1,0,0,0-5.48-2.13c-7.91,0-9.23,8.22-9.23,14.5,0,8,3,13.29,9.23,13.29,5.48,0,7.61-3.75,8.22-7.91h21.3c-1.83,16.13-14.81,22.11-29.52,22.11-17.14,0-30.32-9.64-30.32-27.59,0-18.15,12.78-28.6,30.32-28.6,14.2,0,27.59,6.09,29.11,21.81Z"/><rect class="cls-5" x="92.39" y="468.38" width="415.51" height="112.7"/><path class="cls-6" d="M210.65,532.5a10.35,10.35,0,0,0,10.56,10.56,8.52,8.52,0,0,0,8-4.72H249.6c-3.69,13.33-17.22,17.74-29.72,17.74-17.22,0-30.55-9.84-30.55-27.88,0-17.63,13.23-28.91,30.45-28.91,19.88,0,31.87,13.74,31.57,33.21ZM230,521.64a9.66,9.66,0,0,0-9.43-9.33c-6.36,0-9.95,3.59-9.95,9.33Z"/><path class="cls-6" d="M277.17,500.83v8h.2c3-6.56,10.66-9.54,16.81-9.54,16.2,0,24,13.23,24,28,0,21.11-13.12,28.8-25.12,28.8-5.84,0-10.14-2.36-13.73-6.87v23.58H258v-72Zm19.68,26.75c0-8.5-3.7-12.5-9.33-12.5-5.13,0-8.61,4.92-8.61,12.09,0,7.48,3.18,12.61,8.71,12.61S296.85,535,296.85,527.58Z"/><path class="cls-6" d="M344.5,500.83v8h.2c3-6.56,10.66-9.54,16.81-9.54,16.2,0,24,13.23,24,28,0,21.11-13.12,28.8-25.12,28.8-5.84,0-10.14-2.36-13.73-6.87v23.58H325.33v-72Zm19.68,26.75c0-8.5-3.69-12.5-9.33-12.5-5.13,0-8.61,4.92-8.61,12.09,0,7.48,3.18,12.61,8.71,12.61S364.18,535,364.18,527.58Z"/><path class="cls-6" d="M412.65,532.5a10.35,10.35,0,0,0,10.56,10.56,8.5,8.5,0,0,0,8-4.72h20.4c-3.69,13.33-17.22,17.74-29.73,17.74-17.22,0-30.54-9.84-30.54-27.88,0-17.63,13.22-28.91,30.44-28.91,19.89,0,31.88,13.74,31.57,33.21ZM432,521.64a9.66,9.66,0,0,0-9.43-9.33c-6.35,0-9.94,3.59-9.94,9.33Z"/><path class="cls-6" d="M460.81,554.54v-73.8h21.32v73.8Z"/><path class="cls-4" d="M188,481.44l29.61-38.52h22.8l-29,38.49Z"/><path class="cls-6" d="M139.31,514.42l25.29-33h23.33L163,514.77l24.1,39.56H163.51Z"/><rect class="cls-6" x="118.55" y="481.54" width="20.47" height="72.8"/></svg>