<svg id="Group_6423" data-name="Group 6423" xmlns="http://www.w3.org/2000/svg" width="236" height="38.788" viewBox="0 0 236 38.788">
  <path id="Path_3218" data-name="Path 3218" d="M901.4,154.26h8.435c.008.169.019.3.019.439,0,1.3-.011,2.593.008,3.89,0,.344-.077.457-.443.455-2.507-.017-5.015-.009-7.522-.009h-.5v3.207h.443c3.163,0,6.326.005,9.49-.007.34,0,.466.068.459.439-.024,1.335-.017,2.67,0,4.005,0,.284-.073.374-.366.373q-8.216-.012-16.433,0c-.288,0-.37-.081-.37-.369q.011-9.9,0-19.8c0-.292.087-.367.372-.367q8.024.012,16.048,0c.212,0,.366,0,.363.294-.012,1.425-.006,2.85-.008,4.275a1.649,1.649,0,0,1-.03.194H901.4Z" transform="translate(-771.185 -135.716)" fill="#d0051d"/>
  <path id="Path_3219" data-name="Path 3219" d="M954.778,166.856a2.552,2.552,0,0,1-2.888,1.081,2.769,2.769,0,0,1-2.148-2.843h11.327c-.09-.83-.116-1.6-.257-2.348a7.88,7.88,0,0,0-4.335-5.963,9.579,9.579,0,0,0-5.48-.849,8.019,8.019,0,0,0-5.648,3.03,7.851,7.851,0,0,0-1.569,5.461,6.973,6.973,0,0,0,4.528,6.484,11,11,0,0,0,5.834.6,8.915,8.915,0,0,0,4.014-1.454,5.773,5.773,0,0,0,2.367-3.345c-1.859,0-3.679,0-5.5.007A.349.349,0,0,0,954.778,166.856Zm-4.039-6.921a2.786,2.786,0,0,1,3.062-.051,2.522,2.522,0,0,1,1.273,2.174H949.7A2.252,2.252,0,0,1,950.739,159.935Z" transform="translate(-793.196 -139.896)" fill="#d0051d"/>
  <path id="Path_3220" data-name="Path 3220" d="M1084.787,161.941h-5.968c-.039-.184-.064-.373-.119-.553a1.977,1.977,0,0,0-1.654-1.524,2.213,2.213,0,0,0-2.26.836,3.74,3.74,0,0,0-.666,1.782,6.834,6.834,0,0,0,.286,3.636,2.335,2.335,0,0,0,2.887,1.429,2.158,2.158,0,0,0,1.576-1.849c.046-.21.114-.3.347-.3,1.826.009,3.651.006,5.477.007a1.859,1.859,0,0,1,.194.026c-.012.168-.011.33-.038.486a6.209,6.209,0,0,1-4.591,5.17,11.039,11.039,0,0,1-7.98-.356,6.815,6.815,0,0,1-4.135-5.867,8.879,8.879,0,0,1,.491-4.163,6.989,6.989,0,0,1,4.536-4.3,10.85,10.85,0,0,1,7.83.292,6,6,0,0,1,3.786,5.079A1.613,1.613,0,0,1,1084.787,161.941Z" transform="translate(-848.888 -139.875)" fill="#d0051d"/>
  <path id="Path_3221" data-name="Path 3221" d="M993.422,161.962h-5.97c-.028-.146-.05-.293-.086-.437a1.974,1.974,0,0,0-1.635-1.634,2.2,2.2,0,0,0-2.322.852,3.869,3.869,0,0,0-.667,1.9,8.009,8.009,0,0,0,.113,2.941,2.436,2.436,0,0,0,3.111,1.975,2.072,2.072,0,0,0,1.434-1.432c.076-.217.123-.444.19-.688h5.954a6.385,6.385,0,0,1-5.141,5.809,11.027,11.027,0,0,1-7.674-.6,6.92,6.92,0,0,1-3.991-6.483,8.007,8.007,0,0,1,1.433-5.127,7.593,7.593,0,0,1,5.071-3,11.041,11.041,0,0,1,6.384.658,6.033,6.033,0,0,1,3.772,4.883C993.417,161.692,993.413,161.807,993.422,161.962Z" transform="translate(-807.967 -139.892)" fill="#d0051d"/>
  <path id="Path_3222" data-name="Path 3222" d="M1016.769,148.329v4.6h2.824v3.391h-2.8c-.015.141-.032.228-.032.315,0,1.849,0,3.7.018,5.545.009.965.387,1.346,1.357,1.4.458.024.918,0,1.4,0v4.294c-1.257.028-2.5.076-3.742.073a13.891,13.891,0,0,1-1.957-.145c-1.9-.273-2.8-1.185-2.893-3.1-.1-2.1-.074-4.207-.1-6.311-.007-.666,0-1.332,0-2.049h-2.11v-3.4h2.173v-4.614Z" transform="translate(-822.302 -136.526)" fill="#d0051d"/>
  <path id="Path_3223" data-name="Path 3223" d="M929.743,146.569h5.881v20.472h-5.881Z" transform="translate(-786.917 -135.738)" fill="#d0051d"/>
  <path id="Path_3224" data-name="Path 3224" d="M1042.9,155.96v5.9a5.255,5.255,0,0,0-.681-.088,9,9,0,0,0-1.644.054,2.879,2.879,0,0,0-2.416,2.727,13.54,13.54,0,0,0-.13,1.762c-.018,1.476-.005,2.952-.005,4.428v.473h-5.88V156.349h5.339v2.835l.092.032a5.2,5.2,0,0,1,1.99-2.679A4.716,4.716,0,0,1,1042.9,155.96Z" transform="translate(-832.786 -139.908)" fill="#d0051d"/>
  <path id="Path_3225" data-name="Path 3225" d="M1053.995,156.711h5.873v14.878c-.084.008-.145.02-.207.02-1.787,0-3.575,0-5.362.006-.253,0-.33-.078-.33-.33q.009-7.182.006-14.363C1053.975,156.861,1053.986,156.8,1053.995,156.711Z" transform="translate(-842.565 -140.281)" fill="#d0051d"/>
  <path id="Path_3226" data-name="Path 3226" d="M1059.869,145.581v4.15h-5.863a2.546,2.546,0,0,1-.03-.277c0-1.193,0-2.387,0-3.58,0-.215.038-.328.292-.327,1.813.009,3.625.005,5.437.007A1.186,1.186,0,0,1,1059.869,145.581Z" transform="translate(-842.566 -135.28)" fill="#d0051d"/>
  <path id="Path_3227" data-name="Path 3227" d="M703.567,167.043c-.23.011-.367.023-.5.023-1.954,0-3.909-.007-5.864.009a.653.653,0,0,1-.639-.372q-3.076-5.093-6.171-10.175c-.1-.172-.212-.342-.369-.592v.465q0,5.064,0,10.129c0,.534,0,.535-.516.535-1.646,0-3.292-.007-4.938.007-.316,0-.416-.087-.416-.41q.013-9.879,0-19.758c0-.321.1-.414.414-.411q2.526.02,5.053,0c.331,0,.409.117.408.424-.009,2.748-.006,5.5-.005,8.243v.517l1.892-2.46q2.488-3.238,4.971-6.479a.7.7,0,0,1,.616-.31c1.929.009,3.857,0,5.786.007a4.65,4.65,0,0,1,.516.065c-.117.178-.184.295-.264.4-2.132,2.848-4.259,5.7-6.406,8.535a.7.7,0,0,0-.053.938c2.09,3.387,4.155,6.788,6.226,10.186C703.383,166.689,703.449,166.825,703.567,167.043Z" transform="translate(-676.901 -135.675)" fill="#fff"/>
  <path id="Path_3228" data-name="Path 3228" d="M794.97,158.121a4.869,4.869,0,0,1,3.582-2.418,6.3,6.3,0,0,1,7.374,4.256,10.531,10.531,0,0,1,.551,4.69,8.451,8.451,0,0,1-1.425,4.247,6.543,6.543,0,0,1-5.068,2.749,4.82,4.82,0,0,1-2.967-.564,16.922,16.922,0,0,1-1.43-1.08v.351c0,1.848-.009,3.7.008,5.544,0,.362-.113.45-.458.447-1.749-.016-3.5-.019-5.245,0-.39,0-.473-.138-.473-.491.01-3.337.006-6.674.006-10.011q0-4.64,0-9.28c0-.56,0-.561.553-.562h4.474c.518,0,.518,0,.518.535C794.971,157.033,794.97,157.53,794.97,158.121Zm5.483,5.432a17.217,17.217,0,0,0-.362-1.754,2.241,2.241,0,0,0-2.14-1.641,2.18,2.18,0,0,0-2.117,1.5,5.059,5.059,0,0,0,.081,3.963,2.012,2.012,0,0,0,1.752,1.317,2.2,2.2,0,0,0,2.186-1.152A5.039,5.039,0,0,0,800.453,163.553Z" transform="translate(-724.057 -139.781)" fill="#fff"/>
  <path id="Path_3229" data-name="Path 3229" d="M760.714,158.057a4.927,4.927,0,0,1,3.844-2.407,6.216,6.216,0,0,1,6.812,3.665,10.416,10.416,0,0,1,.78,5.64,7.783,7.783,0,0,1-1.553,4.159,6.586,6.586,0,0,1-4.91,2.529,4.894,4.894,0,0,1-3.3-.765c-.363-.251-.684-.563-1.067-.883v.448c0,1.8-.008,3.594.007,5.391,0,.374-.093.512-.5.507-1.749-.022-3.5-.018-5.246,0-.34,0-.434-.093-.434-.432q.014-9.724,0-19.448c0-.342.086-.474.451-.469q2.333.026,4.667,0c.335,0,.461.1.446.443C760.7,156.944,760.714,157.454,760.714,158.057Zm.441,5.682a14.08,14.08,0,0,0,.352,1.6,2.172,2.172,0,0,0,1.462,1.52,2.307,2.307,0,0,0,2.833-1.568,4.866,4.866,0,0,0,.181-2.794,4.223,4.223,0,0,0-.512-1.351,2.185,2.185,0,0,0-3.642-.024A4.942,4.942,0,0,0,761.155,163.738Z" transform="translate(-708.709 -139.779)" fill="#fff"/>
  <path id="Path_3230" data-name="Path 3230" d="M840.205,166.578c-.042.167-.066.314-.115.454a6.308,6.308,0,0,1-3.992,3.9,11.939,11.939,0,0,1-3.726.7,10.489,10.489,0,0,1-4.632-.723,7.066,7.066,0,0,1-4.564-6.154,8.211,8.211,0,0,1,1.351-5.746,7.717,7.717,0,0,1,5-3.207,10.177,10.177,0,0,1,6.124.493,7.956,7.956,0,0,1,4.8,6c.162.745.164,1.524.251,2.285.044.38-.122.482-.483.48-2.2-.012-4.4-.006-6.6-.006q-1.967,0-3.935,0c-.411,0-.454.056-.37.448a2.86,2.86,0,0,0,3.529,2.254,2.374,2.374,0,0,0,1.382-.982.612.612,0,0,1,.426-.236c1.749-.016,3.5-.011,5.247-.009A2.575,2.575,0,0,1,840.205,166.578Zm-8.307-4.743c.758,0,1.516-.012,2.274.006.339.007.439-.165.326-.424a4.478,4.478,0,0,0-.638-1.166,2.6,2.6,0,0,0-2.84-.76,2.243,2.243,0,0,0-1.715,1.874c-.078.4-.025.469.4.47C830.433,161.836,831.166,161.835,831.9,161.835Z" transform="translate(-739.152 -139.763)" fill="#fff"/>
  <path id="Path_3231" data-name="Path 3231" d="M726.338,165.064a2.716,2.716,0,0,0,1.586,2.484,2.613,2.613,0,0,0,2.841-.2,1.269,1.269,0,0,0,.4-.409c.178-.364.459-.408.819-.4,1.594.014,3.189.006,4.783.006h.522c-.071.252-.109.436-.174.61a6.407,6.407,0,0,1-4.1,3.846,11.791,11.791,0,0,1-3.543.643,10.853,10.853,0,0,1-4.2-.547,7.04,7.04,0,0,1-4.989-6.026,8.1,8.1,0,0,1,1.781-6.663,7.936,7.936,0,0,1,4.982-2.685,10.3,10.3,0,0,1,5.458.5,8.036,8.036,0,0,1,5.051,6.279,14.351,14.351,0,0,1,.225,1.942c.04.621.011.627-.6.627H726.338Zm0-3.282a.45.45,0,0,0,.125.049l4.891.009c.234,0,.272-.1.23-.319a2.687,2.687,0,0,0-2.834-2.146A2.361,2.361,0,0,0,726.34,161.782Z" transform="translate(-693.041 -139.767)" fill="#fff"/>
  <path id="Path_3232" data-name="Path 3232" d="M864.636,156.61c0,3.3-.005,6.6.008,9.9,0,.38-.092.513-.492.508-1.735-.02-3.471-.016-5.207,0-.348,0-.476-.1-.476-.459q.011-9.994,0-19.987c0-.335.112-.443.448-.44q2.622.021,5.246,0c.366,0,.482.094.48.471C864.63,149.934,864.636,153.272,864.636,156.61Z" transform="translate(-754.988 -135.539)" fill="#fff"/>
  <path id="Path_3233" data-name="Path 3233" d="M787.092,140.12c.754,0,.683-.068.683.684q0,15.118,0,30.235c0,.6,0,.6-.614.6H671.615c-.6,0-.6,0-.6-.575V140.71c0-.591,0-.591.582-.591Zm-89.407,24.1c-.118-.218-.184-.354-.263-.482-2.071-3.4-4.136-6.8-6.226-10.186a.7.7,0,0,1,.054-.938q3.22-4.255,6.406-8.535c.08-.107.147-.223.265-.4a4.656,4.656,0,0,0-.516-.065c-1.929,0-3.858,0-5.787-.007a.7.7,0,0,0-.615.31q-2.479,3.244-4.971,6.479l-1.892,2.46v-.517c0-2.748,0-5.5.005-8.243,0-.308-.078-.427-.408-.425q-2.526.021-5.053,0c-.318,0-.415.091-.414.411q.012,9.88,0,19.758c0,.324.1.413.416.41,1.646-.014,3.292-.006,4.938-.007.515,0,.516,0,.516-.536q0-5.064,0-10.129v-.465c.157.25.265.42.369.592q3.089,5.086,6.171,10.175a.653.653,0,0,0,.639.372c1.955-.015,3.91-.008,5.864-.009C697.318,164.239,697.455,164.228,697.685,164.217Zm44.247-13.029c0-.592,0-1.089,0-1.585,0-.533,0-.535-.518-.535h-4.474c-.551,0-.553,0-.553.562q0,4.64,0,9.28c0,3.337,0,6.674-.005,10.011,0,.353.082.5.473.491,1.748-.02,3.5-.018,5.245,0,.346,0,.462-.084.459-.447-.018-1.848-.008-3.7-.008-5.544v-.351a16.871,16.871,0,0,0,1.43,1.08,4.82,4.82,0,0,0,2.967.564,6.543,6.543,0,0,0,5.068-2.749,8.456,8.456,0,0,0,1.425-4.247,10.533,10.533,0,0,0-.551-4.69,6.3,6.3,0,0,0-7.374-4.256A4.869,4.869,0,0,0,741.931,151.188Zm-18.907-.062c0-.6-.016-1.113.006-1.621.014-.339-.111-.445-.446-.443q-2.333.021-4.667,0c-.366,0-.452.127-.451.469q.012,9.724,0,19.448c0,.339.094.435.434.432,1.748-.017,3.5-.02,5.246,0,.4,0,.5-.133.5-.507-.015-1.8-.006-3.594-.006-5.391v-.448c.382.32.7.632,1.066.883a4.894,4.894,0,0,0,3.3.765,6.587,6.587,0,0,0,4.91-2.529,7.78,7.78,0,0,0,1.553-4.159,10.417,10.417,0,0,0-.78-5.64,6.216,6.216,0,0,0-6.812-3.665A4.927,4.927,0,0,0,723.024,151.126Zm49.047,8.537a2.577,2.577,0,0,0-.307-.042c-1.749,0-3.5-.007-5.247.009a.614.614,0,0,0-.426.236,2.373,2.373,0,0,1-1.382.982,2.86,2.86,0,0,1-3.529-2.254c-.083-.391-.041-.447.37-.448q1.967,0,3.935,0c2.2,0,4.4-.006,6.6.006.362,0,.527-.1.483-.48-.087-.762-.089-1.541-.251-2.285a7.956,7.956,0,0,0-4.8-6,10.177,10.177,0,0,0-6.124-.494,7.718,7.718,0,0,0-5,3.207,8.211,8.211,0,0,0-1.351,5.746A7.066,7.066,0,0,0,759.607,164a10.49,10.49,0,0,0,4.632.723,11.94,11.94,0,0,0,3.726-.7,6.308,6.308,0,0,0,3.992-3.9C772.005,159.977,772.029,159.83,772.071,159.663Zm-67.756-1.518h10.838c.614,0,.643-.005.6-.627a14.369,14.369,0,0,0-.225-1.942,8.035,8.035,0,0,0-5.051-6.279,10.3,10.3,0,0,0-5.458-.5,7.937,7.937,0,0,0-4.982,2.685,8.1,8.1,0,0,0-1.781,6.663,7.041,7.041,0,0,0,4.989,6.026,10.853,10.853,0,0,0,4.2.547,11.8,11.8,0,0,0,3.543-.643,6.407,6.407,0,0,0,4.1-3.846c.065-.174.1-.358.174-.61h-.522c-1.595,0-3.189.008-4.783-.006-.36,0-.641.04-.819.4a1.27,1.27,0,0,1-.4.409,2.614,2.614,0,0,1-2.841.2A2.715,2.715,0,0,1,704.315,158.145Zm76.351-4.226c0-3.338-.006-6.675.008-10.013,0-.376-.114-.475-.48-.471q-2.623.026-5.246,0c-.337,0-.449.1-.448.44q.01,9.994,0,19.987c0,.357.128.461.477.459,1.736-.014,3.472-.018,5.207,0,.4,0,.494-.129.492-.508C780.66,160.517,780.666,157.217,780.666,153.918Z" transform="translate(-671.018 -132.848)" fill="#818386"/>
  <path id="Path_3234" data-name="Path 3234" d="M805.362,167.254a5.038,5.038,0,0,1-.6,2.23,2.2,2.2,0,0,1-2.186,1.152,2.012,2.012,0,0,1-1.752-1.317,5.058,5.058,0,0,1-.08-3.963,2.18,2.18,0,0,1,2.117-1.5A2.241,2.241,0,0,1,805,165.5,17.212,17.212,0,0,1,805.362,167.254Z" transform="translate(-728.966 -143.483)" fill="#818386"/>
  <path id="Path_3235" data-name="Path 3235" d="M766.024,167.44a4.942,4.942,0,0,1,.674-2.62,2.185,2.185,0,0,1,3.643.024,4.234,4.234,0,0,1,.512,1.351,4.869,4.869,0,0,1-.181,2.794,2.308,2.308,0,0,1-2.833,1.568,2.172,2.172,0,0,1-1.462-1.52A14.056,14.056,0,0,1,766.024,167.44Z" transform="translate(-713.577 -143.481)" fill="#818386"/>
  <path id="Path_3236" data-name="Path 3236" d="M836.9,164.921c-.733,0-1.465,0-2.2,0-.421,0-.474-.07-.4-.47a2.243,2.243,0,0,1,1.715-1.874,2.6,2.6,0,0,1,2.84.76,4.487,4.487,0,0,1,.638,1.166c.113.259.013.431-.326.424C838.412,164.91,837.654,164.921,836.9,164.921Z" transform="translate(-744.15 -142.85)" fill="#818386"/>
  <path id="Path_3237" data-name="Path 3237" d="M731.339,164.871a2.361,2.361,0,0,1,2.412-2.408,2.687,2.687,0,0,1,2.834,2.146c.041.216,0,.319-.23.319l-4.891-.009A.449.449,0,0,1,731.339,164.871Z" transform="translate(-698.039 -142.856)" fill="#818386"/>
  <path id="Path_3238" data-name="Path 3238" d="M719.722,137.78h6.666l8.1-10.831H728.1Z" transform="translate(-692.835 -126.948)" fill="#d0051d"/>
</svg>
