<svg xmlns="http://www.w3.org/2000/svg" width="30.947" height="29.943" viewBox="0 0 30.947 29.943">
  <g id="Group_6774" data-name="Group 6774" transform="translate(-2717.03 -879.738)">
    <path id="Path_5829" data-name="Path 5829" d="M2744.4,1038.667c.028.32.047.641.05.965a.934.934,0,0,1-.934.941h-21.778a.934.934,0,0,1-.934-.941c0-.334.022-.665.052-.994-2.382.269-3.825.62-3.825,1,0,.843.557,1.527,15.473,1.527s15.474-.684,15.474-1.527C2747.977,1039.271,2746.633,1038.931,2744.4,1038.667Z" transform="translate(0 -131.488)" fill="#545e4f"/>
    <path id="Path_5830" data-name="Path 5830" d="M2771.25,894.827h0a7.544,7.544,0,1,0-7.544-7.544A7.553,7.553,0,0,0,2771.25,894.827Zm5.677-7.544a5.677,5.677,0,1,1-5.677-5.677A5.683,5.683,0,0,1,2776.927,887.282Z" transform="translate(-38.624 0)" fill="#545e4f"/>
    <path id="Path_5831" data-name="Path 5831" d="M2739.176,988.8a.934.934,0,0,0,.663.276h21.778a.934.934,0,0,0,.934-.941c0-.324-.021-.646-.05-.965a11.818,11.818,0,0,0-11.68-10.765h-.1a11.818,11.818,0,0,0-11.768,10.736c-.03.329-.049.66-.052.994A.933.933,0,0,0,2739.176,988.8Zm11.549-10.528h.08a9.958,9.958,0,0,1,9.826,8.936h-19.808a9.958,9.958,0,0,1,9.9-8.937Z" transform="translate(-18.101 -79.988)" fill="#545e4f"/>
  </g>
</svg>
